<?xml version="1.0" encoding="utf-8"?>
<!-- Svg Vector Icons : http://www.onlinewebfonts.com/icon -->
<!DOCTYPE svg PUBLIC "-//W3C//DTD SVG 1.1//EN" "http://www.w3.org/Graphics/SVG/1.1/DTD/svg11.dtd">
<svg version="1.1" xmlns="http://www.w3.org/2000/svg" xmlns:xlink="http://www.w3.org/1999/xlink" x="0px" y="0px" viewBox="0 0 256 256" enable-background="new 0 0 256 256" xml:space="preserve">
<metadata> Svg Vector Icons : http://www.onlinewebfonts.com/icon </metadata>
<g><g><g><path fill="#000000" d="M198.8,33.6h-41.3v-5.9c0-4.9-1.7-9.1-5.2-12.6c-3.5-3.5-7.6-5.2-12.6-5.2h-23.6c-4.8,0-9,1.7-12.5,5.2c-3.5,3.4-5.2,7.6-5.2,12.6v5.9H57.1c-4.8,0-9,1.7-12.5,5.2c-3.5,3.4-5.2,7.6-5.2,12.6v11.8c0,3.9,1.1,7.3,3.3,10.3s5,5.2,8.4,6.4v148.5c0,4.8,1.7,9,5.2,12.4c3.4,3.5,7.7,5.2,12.6,5.2h118c4.8,0,9-1.7,12.4-5.2c3.5-3.4,5.2-7.6,5.2-12.4V79.8c3.5-1.2,6.3-3.4,8.5-6.4c2.2-3,3.3-6.5,3.3-10.3V51.4c0-4.9-1.7-9.1-5.2-12.6C207.9,35.3,203.7,33.6,198.8,33.6L198.8,33.6z M110.3,27.7c0-1.6,0.6-3,1.7-4.1c1.2-1.2,2.5-1.7,4.1-1.7h23.6c1.6,0,3,0.6,4.1,1.7c1.2,1.2,1.7,2.5,1.7,4.1v5.9h-35.4V27.7L110.3,27.7z M187,234.2H69c-1.6,0-3-0.6-4.1-1.7c-1.2-1.2-1.7-2.5-1.7-4.1V80.9h129.8v147.5c0,1.6-0.6,3-1.7,4.1C190,233.7,188.6,234.2,187,234.2L187,234.2z M204.6,63.1c0,1.6-0.6,3-1.7,4.1c-1.2,1.2-2.5,1.7-4.1,1.7H57.1c-1.6,0-3-0.6-4.1-1.7c-1.2-1.2-1.7-2.5-1.7-4.1V51.4c0-1.6,0.6-3,1.7-4.1c1.2-1.2,2.5-1.7,4.1-1.7h141.6c1.6,0,3,0.6,4.1,1.7c1.2,1.2,1.7,2.5,1.7,4.1V63.1L204.6,63.1z M163.4,92.6c-1.6,0-3,0.6-4.1,1.7c-1.2,1.2-1.7,2.5-1.7,4.1v118c0,1.7,0.6,3.1,1.7,4.3c1.2,1.2,2.5,1.7,4.1,1.7s3-0.6,4.1-1.7c1.2-1.2,1.7-2.6,1.7-4.3v-118c0-1.6-0.6-3-1.7-4.1C166.4,93.2,165,92.6,163.4,92.6L163.4,92.6z M128,92.6c-1.6,0-3,0.6-4.1,1.7c-1.2,1.2-1.7,2.5-1.7,4.1v118c0,1.7,0.6,3.1,1.7,4.3c1.2,1.2,2.5,1.7,4.1,1.7c1.6,0,3-0.6,4.1-1.7c1.2-1.2,1.7-2.6,1.7-4.3v-118c0-1.6-0.6-3-1.7-4.1C131,93.2,129.6,92.6,128,92.6L128,92.6z M92.6,92.6c-1.7,0-3.1,0.6-4.3,1.7c-1.2,1.2-1.7,2.5-1.7,4.1v118c0,1.7,0.6,3.1,1.7,4.3c1.2,1.2,2.6,1.7,4.3,1.7c1.6,0,3-0.6,4.1-1.7c1.2-1.2,1.7-2.6,1.7-4.3v-118c0-1.6-0.6-3-1.7-4.1C95.6,93.2,94.2,92.6,92.6,92.6L92.6,92.6z"/></g></g></g>
</svg>